<?xml version="1.0" encoding="UTF-8" standalone="no"?>
<!DOCTYPE svg PUBLIC "-//W3C//DTD SVG 1.1//EN"
 "http://www.w3.org/Graphics/SVG/1.1/DTD/svg11.dtd">
<!-- Generated by graphviz version 2.40.1 (20161225.0304)
 -->
<!-- Title: dependencies Pages: 1 -->
<svg width="813pt" height="211pt"
 viewBox="0.00 0.00 813.00 211.00" xmlns="http://www.w3.org/2000/svg" xmlns:xlink="http://www.w3.org/1999/xlink">
<g id="graph0" class="graph" transform="scale(1 1) rotate(0) translate(4 207)">
<title>dependencies</title>
<polygon fill="#ffffff" stroke="transparent" points="-4,4 -4,-207 809,-207 809,4 -4,4"/>
<text text-anchor="start" x="381.5091" y="-42.4" font-family="sans-serif" font-weight="bold" font-size="14.00" fill="#000000">Legend</text>
<polygon fill="#ffffb3" stroke="transparent" points="168.5,-10 168.5,-30 188.5,-30 188.5,-10 168.5,-10"/>
<text text-anchor="start" x="192.129" y="-15.4" font-family="sans-serif" font-size="14.00" fill="#000000"> &#160;Declarations</text>
<polygon fill="#8dd3c7" stroke="transparent" points="281.5,-10 281.5,-30 301.5,-30 301.5,-10 281.5,-10"/>
<text text-anchor="start" x="305.2251" y="-15.4" font-family="sans-serif" font-size="14.00" fill="#000000"> &#160;Module</text>
<polygon fill="#80b1d3" stroke="transparent" points="367.5,-10 367.5,-30 387.5,-30 387.5,-10 367.5,-10"/>
<text text-anchor="start" x="391.2812" y="-15.4" font-family="sans-serif" font-size="14.00" fill="#000000"> &#160;Bootstrap</text>
<polygon fill="#fdb462" stroke="transparent" points="464.5,-10 464.5,-30 484.5,-30 484.5,-10 464.5,-10"/>
<text text-anchor="start" x="488.1732" y="-15.4" font-family="sans-serif" font-size="14.00" fill="#000000"> &#160;Providers</text>
<polygon fill="#fb8072" stroke="transparent" points="560.5,-10 560.5,-30 580.5,-30 580.5,-10 560.5,-10"/>
<text text-anchor="start" x="584.2258" y="-15.4" font-family="sans-serif" font-size="14.00" fill="#000000"> &#160;Exports</text>
<g id="clust1" class="cluster">
<title>cluster_CoreModule</title>
<polygon fill="none" stroke="#000000" stroke-dasharray="1,5" points="8,-70 8,-195 797,-195 797,-70 8,-70"/>
</g>
<g id="clust6" class="cluster">
<title>cluster_CoreModule_providers</title>
<polygon fill="none" stroke="#000000" points="16,-78 16,-130 789,-130 789,-78 16,-78"/>
</g>
<!-- ErrorService -->
<g id="node1" class="node">
<title>ErrorService</title>
<ellipse fill="#fdb462" stroke="#000000" cx="721" cy="-104" rx="60.2287" ry="18"/>
<text text-anchor="middle" x="721" y="-99.8" font-family="Times,serif" font-size="14.00" fill="#000000">ErrorService</text>
</g>
<!-- CoreModule -->
<g id="node6" class="node">
<title>CoreModule</title>
<polygon fill="#8dd3c7" stroke="#000000" points="475.2619,-187 472.2619,-191 451.2619,-191 448.2619,-187 388.7381,-187 388.7381,-151 475.2619,-151 475.2619,-187"/>
<text text-anchor="middle" x="432" y="-164.8" font-family="Times,serif" font-size="14.00" fill="#000000">CoreModule</text>
</g>
<!-- ErrorService&#45;&gt;CoreModule -->
<g id="edge1" class="edge">
<title>ErrorService&#45;&gt;CoreModule</title>
<path fill="none" stroke="#000000" d="M721,-122.2843C721,-143.3211 721,-175 721,-175 721,-175 485.2662,-175 485.2662,-175"/>
<polygon fill="#000000" stroke="#000000" points="485.2663,-171.5001 475.2662,-175 485.2662,-178.5001 485.2663,-171.5001"/>
</g>
<!-- EventService -->
<g id="node2" class="node">
<title>EventService</title>
<ellipse fill="#fdb462" stroke="#000000" cx="580" cy="-104" rx="62.5373" ry="18"/>
<text text-anchor="middle" x="580" y="-99.8" font-family="Times,serif" font-size="14.00" fill="#000000">EventService</text>
</g>
<!-- EventService&#45;&gt;CoreModule -->
<g id="edge2" class="edge">
<title>EventService&#45;&gt;CoreModule</title>
<path fill="none" stroke="#000000" d="M580,-122.0225C580,-139.3734 580,-163 580,-163 580,-163 485.6044,-163 485.6044,-163"/>
<polygon fill="#000000" stroke="#000000" points="485.6044,-159.5001 475.6044,-163 485.6044,-166.5001 485.6044,-159.5001"/>
</g>
<!-- ImagesService -->
<g id="node3" class="node">
<title>ImagesService</title>
<ellipse fill="#fdb462" stroke="#000000" cx="432" cy="-104" rx="67.7529" ry="18"/>
<text text-anchor="middle" x="432" y="-99.8" font-family="Times,serif" font-size="14.00" fill="#000000">ImagesService</text>
</g>
<!-- ImagesService&#45;&gt;CoreModule -->
<g id="edge3" class="edge">
<title>ImagesService&#45;&gt;CoreModule</title>
<path fill="none" stroke="#000000" d="M432,-122.1061C432,-122.1061 432,-140.991 432,-140.991"/>
<polygon fill="#000000" stroke="#000000" points="428.5001,-140.9909 432,-150.991 435.5001,-140.991 428.5001,-140.9909"/>
</g>
<!-- UserService -->
<g id="node4" class="node">
<title>UserService</title>
<ellipse fill="#fdb462" stroke="#000000" cx="288" cy="-104" rx="58.4415" ry="18"/>
<text text-anchor="middle" x="288" y="-99.8" font-family="Times,serif" font-size="14.00" fill="#000000">UserService</text>
</g>
<!-- UserService&#45;&gt;CoreModule -->
<g id="edge4" class="edge">
<title>UserService&#45;&gt;CoreModule</title>
<path fill="none" stroke="#000000" d="M288,-122.0225C288,-139.3734 288,-163 288,-163 288,-163 378.4045,-163 378.4045,-163"/>
<polygon fill="#000000" stroke="#000000" points="378.4045,-166.5001 388.4045,-163 378.4044,-159.5001 378.4045,-166.5001"/>
</g>
<!-- ValidateFormService -->
<g id="node5" class="node">
<title>ValidateFormService</title>
<ellipse fill="#fdb462" stroke="#000000" cx="118" cy="-104" rx="93.7533" ry="18"/>
<text text-anchor="middle" x="118" y="-99.8" font-family="Times,serif" font-size="14.00" fill="#000000">ValidateFormService</text>
</g>
<!-- ValidateFormService&#45;&gt;CoreModule -->
<g id="edge5" class="edge">
<title>ValidateFormService&#45;&gt;CoreModule</title>
<path fill="none" stroke="#000000" d="M118,-122.2843C118,-143.3211 118,-175 118,-175 118,-175 378.6693,-175 378.6693,-175"/>
<polygon fill="#000000" stroke="#000000" points="378.6694,-178.5001 388.6693,-175 378.6693,-171.5001 378.6694,-178.5001"/>
</g>
</g>
</svg>
