<?xml version="1.0" encoding="UTF-8" standalone="no"?>
<!DOCTYPE svg PUBLIC "-//W3C//DTD SVG 1.1//EN"
 "http://www.w3.org/Graphics/SVG/1.1/DTD/svg11.dtd">
<!-- Generated by graphviz version 2.40.1 (20161225.0304)
 -->
<!-- Title: dependencies Pages: 1 -->
<svg width="642pt" height="211pt"
 viewBox="0.00 0.00 642.00 211.00" xmlns="http://www.w3.org/2000/svg" xmlns:xlink="http://www.w3.org/1999/xlink">
<g id="graph0" class="graph" transform="scale(1 1) rotate(0) translate(4 207)">
<title>dependencies</title>
<polygon fill="#ffffff" stroke="transparent" points="-4,4 -4,-207 638,-207 638,4 -4,4"/>
<text text-anchor="start" x="296.0091" y="-42.4" font-family="sans-serif" font-weight="bold" font-size="14.00" fill="#000000">Legend</text>
<polygon fill="#ffffb3" stroke="transparent" points="83,-10 83,-30 103,-30 103,-10 83,-10"/>
<text text-anchor="start" x="106.629" y="-15.4" font-family="sans-serif" font-size="14.00" fill="#000000"> &#160;Declarations</text>
<polygon fill="#8dd3c7" stroke="transparent" points="196,-10 196,-30 216,-30 216,-10 196,-10"/>
<text text-anchor="start" x="219.7251" y="-15.4" font-family="sans-serif" font-size="14.00" fill="#000000"> &#160;Module</text>
<polygon fill="#80b1d3" stroke="transparent" points="282,-10 282,-30 302,-30 302,-10 282,-10"/>
<text text-anchor="start" x="305.7812" y="-15.4" font-family="sans-serif" font-size="14.00" fill="#000000"> &#160;Bootstrap</text>
<polygon fill="#fdb462" stroke="transparent" points="379,-10 379,-30 399,-30 399,-10 379,-10"/>
<text text-anchor="start" x="402.6732" y="-15.4" font-family="sans-serif" font-size="14.00" fill="#000000"> &#160;Providers</text>
<polygon fill="#fb8072" stroke="transparent" points="475,-10 475,-30 495,-30 495,-10 475,-10"/>
<text text-anchor="start" x="498.7258" y="-15.4" font-family="sans-serif" font-size="14.00" fill="#000000"> &#160;Exports</text>
<g id="clust1" class="cluster">
<title>cluster_EventsModule</title>
<polygon fill="none" stroke="#000000" stroke-dasharray="1,5" points="8,-70 8,-195 626,-195 626,-70 8,-70"/>
</g>
<g id="clust2" class="cluster">
<title>cluster_EventsModule_declarations</title>
<polygon fill="none" stroke="#000000" points="138,-78 138,-130 618,-130 618,-78 138,-78"/>
</g>
<g id="clust6" class="cluster">
<title>cluster_EventsModule_imports</title>
<polygon fill="none" stroke="#000000" points="16,-78 16,-130 130,-130 130,-78 16,-78"/>
</g>
<!-- EventDetailComponent -->
<g id="node1" class="node">
<title>EventDetailComponent</title>
<polygon fill="#ffffb3" stroke="#000000" points="610.1979,-122 461.8021,-122 461.8021,-86 610.1979,-86 610.1979,-122"/>
<text text-anchor="middle" x="536" y="-99.8" font-family="Times,serif" font-size="14.00" fill="#000000">EventDetailComponent</text>
</g>
<!-- EventsModule -->
<g id="node4" class="node">
<title>EventsModule</title>
<polygon fill="#8dd3c7" stroke="#000000" points="341.6528,-187 338.6528,-191 317.6528,-191 314.6528,-187 244.3472,-187 244.3472,-151 341.6528,-151 341.6528,-187"/>
<text text-anchor="middle" x="293" y="-164.8" font-family="Times,serif" font-size="14.00" fill="#000000">EventsModule</text>
</g>
<!-- EventDetailComponent&#45;&gt;EventsModule -->
<g id="edge1" class="edge">
<title>EventDetailComponent&#45;&gt;EventsModule</title>
<path fill="none" stroke="#000000" d="M536,-122.1061C536,-141.3391 536,-169 536,-169 536,-169 351.8824,-169 351.8824,-169"/>
<polygon fill="#000000" stroke="#000000" points="351.8824,-165.5001 341.8824,-169 351.8823,-172.5001 351.8824,-165.5001"/>
</g>
<!-- EventFormComponent -->
<g id="node2" class="node">
<title>EventFormComponent</title>
<polygon fill="#ffffb3" stroke="#000000" points="444.3244,-122 299.6756,-122 299.6756,-86 444.3244,-86 444.3244,-122"/>
<text text-anchor="middle" x="372" y="-99.8" font-family="Times,serif" font-size="14.00" fill="#000000">EventFormComponent</text>
</g>
<!-- EventFormComponent&#45;&gt;EventsModule -->
<g id="edge2" class="edge">
<title>EventFormComponent&#45;&gt;EventsModule</title>
<path fill="none" stroke="#000000" d="M320.8321,-122.1061C320.8321,-122.1061 320.8321,-140.991 320.8321,-140.991"/>
<polygon fill="#000000" stroke="#000000" points="317.3321,-140.9909 320.8321,-150.991 324.3321,-140.991 317.3321,-140.9909"/>
</g>
<!-- EventListComponent -->
<g id="node3" class="node">
<title>EventListComponent</title>
<polygon fill="#ffffb3" stroke="#000000" points="281.7688,-122 146.2312,-122 146.2312,-86 281.7688,-86 281.7688,-122"/>
<text text-anchor="middle" x="214" y="-99.8" font-family="Times,serif" font-size="14.00" fill="#000000">EventListComponent</text>
</g>
<!-- EventListComponent&#45;&gt;EventsModule -->
<g id="edge3" class="edge">
<title>EventListComponent&#45;&gt;EventsModule</title>
<path fill="none" stroke="#000000" d="M263.0291,-122.1061C263.0291,-122.1061 263.0291,-140.991 263.0291,-140.991"/>
<polygon fill="#000000" stroke="#000000" points="259.5292,-140.9909 263.0291,-150.991 266.5292,-140.991 259.5292,-140.9909"/>
</g>
<!-- SharedModule -->
<g id="node5" class="node">
<title>SharedModule</title>
<polygon fill="#8dd3c7" stroke="#000000" points="122.4231,-122 119.4231,-126 98.4231,-126 95.4231,-122 23.5769,-122 23.5769,-86 122.4231,-86 122.4231,-122"/>
<text text-anchor="middle" x="73" y="-99.8" font-family="Times,serif" font-size="14.00" fill="#000000">SharedModule</text>
</g>
<!-- SharedModule&#45;&gt;EventsModule -->
<g id="edge4" class="edge">
<title>SharedModule&#45;&gt;EventsModule</title>
<path fill="none" stroke="#000000" d="M73,-122.1061C73,-141.3391 73,-169 73,-169 73,-169 234.1749,-169 234.1749,-169"/>
<polygon fill="#000000" stroke="#000000" points="234.1749,-172.5001 244.1749,-169 234.1748,-165.5001 234.1749,-172.5001"/>
</g>
</g>
</svg>
